<?xml version="1.0" encoding="utf-8"?>
<!-- Generator: Adobe Illustrator 21.0.2, SVG Export Plug-In . SVG Version: 6.00 Build 0)  -->
<svg version="1.1" id="Layer_1" xmlns="http://www.w3.org/2000/svg" xmlns:xlink="http://www.w3.org/1999/xlink" x="0px" y="0px"
	 viewBox="0 0 149.1 88.5" style="enable-background:new 0 0 149.1 88.5;" xml:space="preserve">
<style type="text/css">
	.st0{fill:#0271B9;}
	.st1{fill:#DD2E26;}
</style>
<g>
	<path class="st0" d="M75.5,60.5c0.6-1.1,0.9-3,0.9-4.6l1.8,0.2c0,1.8-0.3,3.9-1,5.3L75.5,60.5z M81.5,55.1c0.7,0.9,1.5,2.1,1.9,2.9
		l-1.6,1c-0.2-0.6-0.7-1.5-1.2-2.2v13.3h-2.3v-18l2.8,0.2c0,0.2-0.2,0.3-0.5,0.4v3L81.5,55.1z M93.6,62.9h-4.7c1,2.4,2.5,4.3,5,5.2
		c-0.6,0.5-1.3,1.5-1.6,2.2c-2.4-1.1-3.9-3.1-5-5.6c-0.7,2.1-2.1,4.1-4.5,5.6c-0.3-0.5-1.1-1.3-1.6-1.7c2.7-1.5,3.9-3.5,4.4-5.6
		h-3.7v-2.2h4c0.1-0.7,0.1-1.3,0.1-1.9v-1.6h-3V55h2.9v-2.9l2.8,0.2c0,0.2-0.2,0.3-0.5,0.4V55h4.1v5.7h1.4L93.6,62.9L93.6,62.9z
		 M88.2,57.1v1.6c0,0.6,0,1.3-0.1,1.9H90v-3.5H88.2z"/>
	<path class="st0" d="M99.3,64.4c-0.5,1.9-1.2,3.7-2.7,4.9L94.7,68c1.3-1,2.1-2.5,2.5-4.2L99.3,64.4z M104.5,65.7
		c-0.7-0.8-2.2-1.9-3.5-2.6l1.1-1h-4.8V53h13.1v9h-6.9c1.1,0.6,2.1,1.3,2.7,2L104.5,65.7z M99.3,54.9v1.6h3.2v-1.6H99.3z M99.3,58.4
		v1.7h3.2v-1.7H99.3z M102.1,67.1c0,0.6,0.1,0.6,0.9,0.6h2.1c0.7,0,0.8-0.3,0.9-2.2c0.5,0.4,1.4,0.7,2,0.8c-0.2,2.7-0.8,3.4-2.7,3.4
		h-2.7c-2.3,0-2.8-0.7-2.8-2.6V64l2.8,0.2c0,0.2-0.2,0.3-0.5,0.4L102.1,67.1L102.1,67.1z M108,56.5v-1.6h-3.3v1.6H108z M108,60.1
		v-1.7h-3.3v1.7H108z M110.5,69.1c-0.5-1.3-1.9-3.2-3.2-4.6l2-1.2c1.3,1.3,2.8,3.1,3.4,4.5L110.5,69.1z"/>
	<path class="st0" d="M117.9,64.4l1.9-0.4l0.2,2c-2,0.5-4.1,1.1-5.4,1.4c0,0.2-0.2,0.3-0.3,0.3l-0.6-2.4c0.7-0.1,1.4-0.3,2.3-0.4
		v-3.8h-1.8v-2h1.8v-3.5h-1.9v-2.1h5.9v2.1h-1.9V59h1.6v2h-1.6L117.9,64.4L117.9,64.4z M131.8,61.2h-5.3c-0.1,0.4-0.2,0.8-0.4,1.2
		h5.1V68c0,1.2-0.2,2.1-2.3,2.1c-0.1-0.6-0.4-1.5-0.7-2h0.7c0.1,0,0.2,0,0.2-0.2v-3.6H128v5.6h-1.8v-5.6h-1.1v5.6h-1.8v-5.6h-1v5.8
		h-2.1v-7.8h3.7c0.1-0.4,0.2-0.8,0.3-1.2h-4.6v-2h12L131.8,61.2L131.8,61.2z M131.3,53.3c0,0.2-0.2,0.3-0.5,0.3v4.5h-9.9v-4.9
		l2.6,0.2c0,0.2-0.2,0.3-0.5,0.3v2.4h1.8v-4l2.6,0.1c0,0.2-0.2,0.3-0.5,0.3V56h1.8v-2.9L131.3,53.3z"/>
</g>
<polygon class="st1" points="67.1,52.1 67.1,52.1 72,57.2 73.4,52.1 "/>
<path class="st0" d="M41.1,45.8H35L40,28h5.8l-1.2,4.4c1.9-3.4,4.7-4.9,7-4.9c0.8,0,1.6,0,2.5,0.5L51,33.7c-1.1-0.5-2.1-0.5-2.6-0.5
	c-2.3,0-4.1,1.3-5.6,6.6L41.1,45.8z"/>
<path class="st0" d="M75.1,45.8H69L74,28h5.8l-1.2,4.4c1.9-3.4,4.7-4.9,7-4.9c0.8,0,1.6,0,2.5,0.5L85,33.7c-1.1-0.5-2.1-0.5-2.6-0.5
	c-2.3,0-4.1,1.3-5.6,6.6L75.1,45.8z"/>
<polygon class="st1" points="106.5,19.5 98.8,19.5 110.5,31.5 106.5,45.9 114,45.9 116.3,37.5 124.5,45.9 132.2,45.9 "/>
<path class="st0" d="M30,39c-1,1-2.2,1.6-3.5,1.6c-2,0-3.2-1.7-2.7-3.7s2.7-3.7,4.7-3.7c1.3,0,2.3,0.7,2.6,1.8l5.8-3
	c-1-2.6-3.2-4.4-6.6-4.4c-5.3,0-10.9,3.7-12.5,9.3c-1.6,5.7,2,9.3,7.3,9.3c3.1,0,5.9-1.4,8.3-3.6L30,39z"/>
<path class="st0" d="M63.4,39.9c-1.3,1.1-2.7,1.4-3.7,1.4c-1.9,0-3.6-1-3.3-2.7h12.8c0.2-0.5,0.5-1.5,0.7-1.9
	c1.6-5.6-1.6-9.1-6.7-9.1s-10.5,3.6-12,9.2s1.7,9.4,6.9,9.4c2.7,0,6.1-0.8,8.7-3.1L63.4,39.9z M61.6,32.6c0.9,0,2.9,0.3,2.8,2.6
	h-7.1C58.4,32.9,60.7,32.6,61.6,32.6z"/>
<path class="st0" d="M101,28.1l-0.5,1.8c-0.7-1.6-2.5-2.4-4.3-2.4c-4.4,0-9.7,3.6-11.3,9.3c-1.6,5.8,1.7,9.3,6.1,9.3
	c1.9,0,4-0.8,5.6-2.4l-0.6,2h6.1l3.6-12.9L101,28.1z M98.5,36.9c-0.6,2-2.7,3.7-4.7,3.7s-3.2-1.7-2.7-3.7c0.6-2,2.7-3.7,4.7-3.7
	C97.9,33.2,99.1,34.9,98.5,36.9z"/>
<polygon class="st1" points="119.7,25.2 121.3,19.5 114.2,19.5 "/>
</svg>
